<?xml version="1.0" encoding="UTF-8"?>
<svg id="_레이어_1" data-name="레이어 1" xmlns="http://www.w3.org/2000/svg" viewBox="0 0 600 500">
  <defs>
    <style>
      .cls-1 {
        fill: #b7b6b6;
        stroke-width: 0px;
      }
    </style>
  </defs>
  <path class="cls-1" d="m443.9,417.8c-.72,0-1.44-.05-2.16-.15l-345.51-49.35c-7.52-1.07-13.19-7.64-13.19-15.26V126.73c0-4.4,1.88-8.61,5.16-11.53,3.26-2.91,7.62-4.29,11.94-3.79l347.73,40.09c7.83.9,13.68,7.55,13.6,15.46l-2.22,235.56c-.04,4.46-2,8.67-5.37,11.57-2.8,2.4-6.34,3.7-9.98,3.7ZM98.4,112.19c-3.52,0-6.96,1.29-9.62,3.67-3.09,2.76-4.87,6.72-4.87,10.88v226.3c0,7.2,5.35,13.38,12.44,14.4l345.51,49.35c4.12.59,8.29-.63,11.45-3.35,3.18-2.73,5.03-6.71,5.07-10.91l2.22-235.56c.07-7.46-5.44-13.73-12.83-14.59L100.04,112.28c-.55-.06-1.1-.09-1.65-.09Z"/>
  <path class="cls-1" d="m447.52,431.09c-1.06,0-2.12-.08-3.18-.23l-354.88-51.28c-10.93-1.58-19.14-11.1-19.08-22.15l1.13-233.71c.03-6.3,2.74-12.31,7.44-16.5,4.7-4.19,10.98-6.21,17.24-5.53l357.9,38.9c11.52,1.25,20.05,10.93,19.86,22.51l-4.15,246.09c-.11,6.39-2.96,12.44-7.83,16.58-4.05,3.45-9.18,5.31-14.44,5.31Zm-3.06-1.09c6.08.88,12.25-.9,16.93-4.88,4.68-3.98,7.42-9.79,7.52-15.93l4.15-246.09c.19-11.13-8.01-20.43-19.08-21.63L96.08,102.56c-6.01-.65-12.05,1.28-16.56,5.31-4.51,4.03-7.12,9.81-7.15,15.86l-1.13,233.71c-.05,10.61,7.83,19.76,18.34,21.28l354.88,51.28Z"/>
  <path class="cls-1" d="m528.94,377.85l-.47-.74c.67-.42,1.28-.86,1.87-1.34,5.06-4.07,8.03-10.16,8.14-16.72l4.09-231.82c.2-11.39-8.04-20.87-19.15-22.06l-345.11-35.27c-3.07-.33-6.07,0-8.93.97-.75.26-1.38.51-1.96.78l-.37-.79c.61-.29,1.27-.54,2.01-.8,3.03-1.03,6.15-1.37,9.35-1.02l345.11,35.27c11.57,1.24,20.14,11.1,19.94,22.95l-4.09,231.82c-.12,6.82-3.21,13.15-8.47,17.38-.6.49-1.26.96-1.95,1.4Z"/>
  <rect class="cls-1" x="81.43" y="86.79" width="91.02" height=".87" transform="translate(-23.2 52.86) rotate(-21.6)"/>
  <rect class="cls-1" x="453.03" y="400.6" width="85.6" height=".87" transform="translate(-140.79 363.76) rotate(-35.62)"/>
  <path class="cls-1" d="m344.42,320.18c-17.69,0-32.08-15.15-32.08-33.78,0-11.63,5.58-22.3,14.92-28.54,5.11-3.42,11.05-5.23,17.16-5.23,17.69,0,32.08,15.15,32.08,33.78,0,8.38-2.94,16.43-8.28,22.65-1.52,1.78-3.25,3.4-5.12,4.82l-.1.08c-5.45,4.08-11.87,6.23-18.57,6.23Zm0-66.68c-5.94,0-11.7,1.76-16.67,5.09-9.1,6.08-14.53,16.48-14.53,27.82,0,18.14,14,32.91,31.2,32.91,6.51,0,12.75-2.1,18.05-6.06l.1-.07c1.82-1.38,3.5-2.96,4.98-4.69,5.2-6.06,8.07-13.9,8.07-22.08,0-18.14-14-32.91-31.2-32.91Z"/>
  <path class="cls-1" d="m374,306.1l-.51-.71.18-.13c.55-.35,1.1-.73,1.63-1.16l.08-.06c8.04-6.18,12.84-16.12,12.84-26.6,0-18.14-14-32.91-31.2-32.91-6.57,0-12.86,2.13-18.17,6.16,0,0-.07.05-.07.05l-.5-.71c5.52-4.18,11.98-6.37,18.75-6.37,17.69,0,32.08,15.15,32.08,33.78,0,10.75-4.93,20.95-13.18,27.3l-.07.05c-.56.44-1.12.84-1.68,1.19l-.16.12Z"/>
  <path class="cls-1" d="m154.78,296.89c-17.69,0-32.08-15.15-32.08-33.78s14.39-33.78,32.08-33.78,32.08,15.15,32.08,33.78-14.39,33.78-32.08,33.78Zm0-66.68c-17.21,0-31.2,14.76-31.2,32.91s14,32.91,31.2,32.91,31.2-14.76,31.2-32.91-14-32.91-31.2-32.91Z"/>
  <path class="cls-1" d="m184.88,284.92l-.4-.78.27-.14c10.74-5.59,17.41-16.9,17.41-29.52,0-18.14-14-32.91-31.2-32.91-5.27,0-10.48,1.41-15.06,4.08l-.44-.75c4.72-2.75,10.08-4.2,15.5-4.2,17.69,0,32.08,15.15,32.08,33.78,0,12.95-6.85,24.56-17.88,30.3l-.27.14Z"/>
  <polygon class="cls-1" points="176.55 287.74 176.54 287.74 176.54 286.87 176.55 287.74"/>
  <path class="cls-1" d="m249.49,110.02c-3.83,0-7.93-.22-12.2-.73-18.51-2.21-95.02-12.16-99.84-12.97-1.73-.29-2.91-1.23-3.24-2.57-.36-1.46.39-3.13,1.97-4.34.01,0,.02-.02.03-.02,7.86-4.91,21.83-4.25,29.45-3.41,13.13,1.53,97.36,11.74,105.79,12.78,2.12.26,3.83,1.44,4.25,2.93.21.74.28,2.22-1.68,3.81-2.73,2.23-12.21,4.52-24.55,4.52Zm-112.79-19.91c-1.29,1-1.92,2.31-1.64,3.42.24.99,1.17,1.69,2.54,1.92,4.81.82,81.29,10.75,99.79,12.97,17.78,2.13,32.63-.78,36.09-3.6,1.18-.96,1.66-1.96,1.39-2.89-.33-1.14-1.78-2.09-3.52-2.31-8.43-1.04-92.66-11.25-105.78-12.78-7.5-.82-21.23-1.49-28.87,3.27Z"/>
  <path class="cls-1" d="m207.24,105.48c-14.73-7.49-32.26-4.23-32.43-4.19l-.17-.86c.18-.03,17.99-3.36,32.99,4.27l-.4.78Z"/>
  <path class="cls-1" d="m391.71,125.73c-.83,0-1.65,0-2.46-.03-.82-.02-1.61-.04-2.41-.08-1.06-.04-2.1-.11-3.13-.18-.51-.04-1.02-.08-1.52-.12-1-.09-1.98-.18-2.94-.3-1.34-.15-2.73-.35-4.14-.59-.35-.06-.7-.12-1.04-.18-.35-.06-.7-.13-1.04-.2l-1.06-.23c-.28-.06-.56-.13-.84-.19-2.52-.56-4.74-1.26-6.58-2.07-3.42-1.51-5.16-3.23-5.16-5.12s1.74-3.61,5.16-5.12l.35.8c-3.04,1.34-4.64,2.83-4.64,4.32s1.6,2.98,4.64,4.32c1.79.78,3.95,1.46,6.43,2.02.28.07.55.13.83.19l1.04.22c.33.07.68.14,1.02.2.33.06.68.12,1.03.18,1.39.23,2.77.43,4.1.58.95.11,1.92.21,2.91.3.5.04,1,.09,1.5.12,1.02.07,2.05.13,3.11.17.79.03,1.58.06,2.39.08,1.62.03,3.28.03,4.9,0,.8-.02,1.6-.04,2.38-.08,1.05-.04,2.09-.1,3.1-.17.49-.03.97-.07,1.45-.12,1.05-.09,2.02-.19,2.97-.3.48-.05.95-.11,1.41-.17.85-.11,1.69-.24,2.5-.37.77-.13,1.51-.27,2.23-.42l.38-.08c.23-.05.45-.09.68-.15,3.28-.7,6.08-1.61,8.11-2.62,2.47-1.23,3.78-2.58,3.78-3.91s-1.31-2.68-3.78-3.91l.39-.78c2.83,1.41,4.26,2.99,4.26,4.69s-1.43,3.28-4.26,4.69c-2.09,1.04-4.97,1.97-8.31,2.69-.22.05-.45.1-.68.15l-.38.08c-.73.15-1.49.29-2.27.42-.82.13-1.67.26-2.53.38-.47.06-.94.12-1.43.18-.95.11-1.94.21-2.94.3-.55.05-1.03.09-1.53.12-1.02.07-2.06.13-3.12.18-.79.03-1.59.06-2.4.08-.82.02-1.64.03-2.47.03Z"/>
  <path class="cls-1" d="m391.71,125.73c-.83,0-1.65,0-2.46-.03-.82-.02-1.61-.04-2.41-.08-1.07-.04-2.11-.1-3.13-.18-.52-.03-1.02-.07-1.52-.12-1.07-.08-2.04-.18-2.94-.3-1.35-.15-2.75-.35-4.14-.59-.35-.06-.7-.12-1.03-.18-.35-.06-.7-.13-1.04-.2l-1.06-.23c-.28-.06-.56-.13-.84-.19-2.79-.69-5.08-1.54-6.63-2.45-1.64-.99-2.47-2.06-2.47-3.2s.83-2.21,2.47-3.19l.45.75c-.93.56-2.04,1.43-2.04,2.44s1.11,1.89,2.04,2.45c1.47.87,3.68,1.68,6.39,2.35.27.07.54.13.82.19l1.04.22c.33.07.68.14,1.02.2.33.06.68.12,1.03.18,1.37.24,2.75.43,4.09.58.89.12,1.84.21,2.91.3.5.05,1,.09,1.51.12,1.01.08,2.05.13,3.11.17.79.03,1.58.06,2.39.08,1.62.03,3.28.03,4.9,0,.8-.02,1.6-.04,2.38-.08,1.05-.04,2.09-.1,3.09-.17.51-.03,1.02-.07,1.51-.12,1.08-.08,2.03-.18,2.92-.3.48-.05.95-.1,1.41-.17.87-.11,1.71-.23,2.5-.37.77-.13,1.52-.27,2.24-.42l.38-.08c.23-.05.45-.09.68-.15,3.75-.86,6.53-1.94,8.04-3.12.79-.63,1.2-1.26,1.2-1.87s-.4-1.24-1.2-1.87l.54-.68c1.01.8,1.53,1.66,1.53,2.55s-.51,1.75-1.53,2.55c-1.61,1.26-4.51,2.4-8.38,3.29-.23.05-.46.1-.69.15l-.38.08c-.73.15-1.49.29-2.27.42-.81.14-1.66.26-2.53.38-.46.07-.94.12-1.42.18-.89.12-1.85.21-2.94.3-.49.05-1,.09-1.52.12-1.01.08-2.06.13-3.12.18-.79.03-1.59.06-2.4.08-.82.02-1.64.03-2.47.03Z"/>
  <path class="cls-1" d="m420.02,120.75h-.87v-13.73h.4l-.04-.44h.04c.24,0,.47.2.47.44v13.73Z"/>
  <path class="cls-1" d="m365.17,121.17h-.87v-14.08c0-.24.2-.51.44-.51v.44h.44v14.15Z"/>
  <path class="cls-1" d="m392.12,113.94c-13.7,0-27.86-2.59-27.86-6.92s14.17-6.92,27.86-6.92,27.86,2.59,27.86,6.92-14.17,6.92-27.86,6.92Zm0-12.97c-16.14,0-26.99,3.13-26.99,6.05s10.84,6.05,26.99,6.05,26.99-3.13,26.99-6.05-10.84-6.05-26.99-6.05Z"/>
  <g>
    <path class="cls-1" d="m273.12,171.26l.12-7.88-4.81,2.44-4.42-3.61.03-1.75,4.37,3.54,6.48-3.34c.48.94.82,1.97.98,3.03l.96.14c-.59-4.54-4.05-8.45-8.28-9.05-4.7-.68-8.58,2.98-8.66,8.14s3.67,9.92,8.37,10.6c4.22.61,7.79-2.28,8.53-6.63l-.96-.14c-.36,1.91-1.34,3.49-2.71,4.52m-4.58-15.45c2.36.34,4.46,1.84,5.82,3.92l-5.93,3.05-5.3-4.29-.05,2.95-1.67-1.36c1.16-2.93,3.93-4.73,7.13-4.27m-7.7,7.24c.01-.7.1-1.37.26-2l1.96,1.6-.1,6.59c-1.34-1.7-2.15-3.91-2.12-6.2m3.05,7.22l.11-6.85,4.42,3.61,3.86-1.96-.11,6.78c-1.15.58-2.48.82-3.89.62-1.65-.24-3.16-1.04-4.39-2.21"/>
    <path class="cls-1" d="m250.53,178.97c.19-.19.42-.34.68-.44.25-.09.53-.12.83-.08.34.05.66.18.96.39.29.21.54.48.73.8l.06.09.35-.17-.08-.12c-.25-.4-.57-.74-.95-1.01-.38-.27-.81-.44-1.27-.51-.39-.06-.75-.03-1.09.08-.34.11-.64.28-.89.5-.26.23-.46.52-.61.85-.15.34-.23.72-.24,1.13s.06.81.2,1.19c.14.38.34.73.58,1.03.25.3.54.56.87.76.33.2.7.33,1.08.39.46.07.89.02,1.28-.14.39-.16.72-.41.98-.74l.08-.1-.35-.27-.06.08c-.2.26-.45.46-.75.59-.3.13-.62.17-.96.12-.3-.04-.58-.15-.83-.31-.25-.16-.47-.38-.66-.63-.19-.25-.33-.54-.44-.85-.1-.31-.15-.65-.15-.99s.06-.66.18-.94c.11-.28.27-.52.46-.72"/>
    <polygon class="cls-1" points="258.16 180.15 260.04 185.07 260.99 185.21 258.58 178.91 258.27 178.87 255.66 184.44 256.13 184.51 258.16 180.15"/>
    <path class="cls-1" d="m266.78,182.74c.22-.26.34-.6.34-1,0-.22-.03-.43-.09-.63-.06-.2-.16-.39-.3-.56-.14-.17-.31-.31-.52-.42-.21-.11-.46-.19-.74-.23l-2.44-.35-.09,5.94.89.13.04-2.74.98.14,1.76,3.01,1.09.16-1.79-3.06c.38-.02.67-.15.87-.38m-2.86-2.6l1.4.2c.2.03.36.08.48.16.11.07.2.16.26.27.06.11.11.24.12.37.02.15.03.3.03.47s-.02.32-.04.46c-.02.13-.07.24-.13.33-.06.09-.15.15-.27.19-.12.04-.28.05-.49.02l-1.4-.2.04-2.27Z"/>
    <polygon class="cls-1" points="269.57 186.44 273.71 187.04 273.72 186.59 270.47 186.12 270.5 183.83 273.16 184.21 273.16 183.75 270.51 183.37 270.55 181.1 273.8 181.56 273.81 181.11 269.66 180.51 269.57 186.44"/>
    <polygon class="cls-1" points="280.34 182.07 280.34 182.16 278.22 184.77 276.41 181.48 275.48 181.35 275.39 187.28 275.82 187.35 275.89 182.51 277.78 185.86 278.14 185.92 280.32 183.23 280.24 187.98 281.13 188.11 281.22 182.18 280.45 182.06 280.34 182.07"/>
    <polygon class="cls-1" points="287.14 183.49 287.15 183.03 283 182.43 282.9 188.37 287.05 188.97 287.06 188.51 283.8 188.04 283.84 185.75 286.49 186.13 286.5 185.68 283.85 185.3 283.88 183.02 287.14 183.49"/>
  </g>
  <rect class="cls-1" x="141.44" y="228.42" width="15.14" height=".87" transform="translate(-90.5 97.65) rotate(-28.22)"/>
  <rect class="cls-1" x="169.73" y="287.73" width="16.16" height=".87" transform="translate(-114.07 116.52) rotate(-27.87)"/>
  <polygon class="cls-1" points="327.75 258.58 327.25 257.87 338.28 250.03 338.59 250.35 338.84 250.7 327.75 258.58"/>
  <polygon class="cls-1" points="361.79 314.8 361.28 314.09 375.39 304.04 375.92 304.74 375.85 304.79 361.79 314.8"/>
  <g>
    <path class="cls-1" d="m117.57,232.02c-.7.73-1.53,1.05-2.51.96-.98-.09-1.79-.57-2.46-1.43-.66-.88-.97-1.89-.95-3.05.02-1.16.38-2.11,1.07-2.84.7-.74,1.53-1.07,2.51-.97.97.09,1.79.57,2.46,1.44.66.86.98,1.87.96,3.04-.02,1.16-.38,2.11-1.08,2.85Zm-4.01-1.45c.4.53.91.82,1.54.88.62.06,1.14-.13,1.56-.58.43-.45.65-1.06.66-1.82.02-.76-.18-1.41-.59-1.94-.41-.53-.92-.83-1.53-.89-.62-.06-1.14.14-1.56.59-.43.45-.65,1.06-.66,1.82-.02.76.18,1.41.59,1.94Z"/>
    <path class="cls-1" d="m123.68,225.65l-.03,1.5-2.69-.26-.04,1.89,2.62.25-.03,1.5-2.62-.25-.06,3.08-1.33-.13.16-7.98,4.02.38Z"/>
    <path class="cls-1" d="m128.67,226.12l-.03,1.5-2.69-.26-.04,1.89,2.62.25-.03,1.5-2.62-.25-.06,3.08-1.33-.13.16-7.98,4.02.38Z"/>
  </g>
  <g>
    <path class="cls-1" d="m146.89,306.42l.06-3.17,1.32.12-.16,7.98-1.32-.13.07-3.3-2.5-.24-.07,3.3-1.33-.13.16-7.98,1.33.13-.06,3.17,2.5.24Z"/>
    <path class="cls-1" d="m150.55,311.58l-1.24-.12.11-5.7,1.24.12-.11,5.7Zm-.5-6.44c-.21-.02-.38-.13-.53-.32-.15-.19-.22-.41-.21-.65s.09-.45.24-.62c.16-.17.33-.24.54-.22.21.02.39.13.54.33.15.2.22.42.21.66s-.08.45-.24.61c-.15.16-.34.24-.55.22Z"/>
    <path class="cls-1" d="m155.47,307.05v-.71s1.23.12,1.23.12l-.11,5.42c-.02.87-.28,1.52-.78,1.95-.5.42-1.09.59-1.78.53-1.09-.1-1.84-.64-2.25-1.61l1.07-.62c.23.55.64.86,1.25.92.39.04.7-.06.93-.28.23-.22.35-.56.36-1.01v-.62c-.36.54-.88.78-1.54.72-.68-.06-1.25-.4-1.7-1.01-.44-.62-.66-1.33-.64-2.14s.26-1.47.73-2c.47-.53,1.05-.76,1.72-.69.66.06,1.17.4,1.52,1.01Zm-.44,3.14c.26-.27.39-.63.4-1.09s-.11-.84-.36-1.14c-.24-.32-.56-.5-.95-.54-.38-.04-.71.08-.98.35-.26.26-.39.61-.4,1.07s.11.84.36,1.16c.25.32.57.49.96.53.39.04.72-.08.98-.35Z"/>
    <path class="cls-1" d="m160.5,306.66c.53.05.96.3,1.29.75.34.46.5,1.05.48,1.78l-.07,3.5-1.24-.12.07-3.32c0-.37-.07-.67-.24-.89-.17-.22-.4-.35-.69-.37-.33-.03-.59.06-.78.29-.19.22-.3.56-.31,1.03l-.06,3.08-1.24-.12.16-7.98,1.24.12-.06,2.92c.31-.5.79-.72,1.45-.66Z"/>
    <path class="cls-1" d="m169.9,305.43l-.03,1.5-2.69-.26-.04,1.89,2.62.25-.03,1.5-2.62-.25-.06,3.08-1.33-.13.16-7.98,4.02.38Z"/>
    <path class="cls-1" d="m172.01,307.91l-.02.98c.12-.35.31-.6.57-.76.27-.16.57-.23.91-.19l-.03,1.64c-.38-.1-.72-.04-1.02.18-.3.21-.46.58-.47,1.13l-.05,2.72-1.24-.12.11-5.7,1.24.12Z"/>
    <path class="cls-1" d="m178.62,312l-3.63-.34c.15.73.59,1.13,1.33,1.2.47.04.84-.11,1.09-.47l.99.78c-.49.77-1.2,1.11-2.12,1.02-.79-.08-1.43-.42-1.9-1.04-.47-.62-.7-1.36-.68-2.22.02-.85.27-1.54.75-2.07.48-.53,1.09-.76,1.85-.69.71.07,1.29.41,1.72,1.03.45.62.67,1.36.65,2.21,0,.16-.02.36-.06.6Zm-3.62-1.49l2.45.23c-.06-.38-.2-.68-.41-.89-.21-.22-.46-.34-.76-.37-.33-.03-.61.04-.83.22s-.37.45-.45.81Z"/>
    <path class="cls-1" d="m183.19,309.65v-.67s1.25.12,1.25.12l-.16,7.98-1.24-.12.06-2.95c-.38.52-.9.75-1.58.68-.65-.06-1.2-.4-1.65-1.02-.44-.63-.66-1.36-.64-2.21.02-.83.26-1.52.73-2.07.47-.54,1.03-.78,1.68-.72.67.06,1.19.39,1.54.98Zm-2.36,3.12c.26.32.57.5.95.54.38.04.71-.08.96-.35.26-.28.39-.66.4-1.13s-.11-.87-.35-1.19c-.24-.33-.56-.51-.94-.55s-.71.08-.97.36c-.26.27-.39.64-.4,1.11,0,.47.11.87.35,1.2Z"/>
    <path class="cls-1" d="m188.69,312.58l.06-3.08,1.24.12-.11,5.7-1.24-.12v-.64c-.29.5-.78.72-1.44.66-.53-.05-.96-.3-1.3-.75-.33-.46-.49-1.05-.48-1.78l.07-3.5,1.24.12-.07,3.32c0,.37.07.67.24.89.17.22.4.35.69.37.33.03.59-.06.78-.29.19-.22.29-.56.3-1.03Z"/>
    <path class="cls-1" d="m195.74,313.63l-3.63-.34c.15.73.59,1.13,1.33,1.2.47.04.84-.11,1.09-.47l.99.78c-.49.77-1.2,1.11-2.12,1.02-.79-.08-1.43-.42-1.9-1.04-.47-.62-.7-1.36-.68-2.22.02-.85.27-1.54.75-2.07.48-.53,1.09-.76,1.85-.69.71.07,1.29.41,1.72,1.03.45.62.67,1.36.65,2.21,0,.16-.02.36-.06.6Zm-3.62-1.49l2.45.23c-.06-.38-.2-.68-.41-.89-.21-.22-.46-.34-.76-.37-.33-.03-.61.04-.83.22s-.37.45-.45.81Z"/>
    <path class="cls-1" d="m199.4,310.36c.53.05.96.3,1.29.75.34.46.5,1.05.48,1.78l-.07,3.5-1.24-.12.07-3.32c0-.37-.07-.67-.24-.89-.17-.22-.4-.35-.69-.37-.33-.03-.59.06-.78.29s-.3.56-.31,1.03l-.06,3.08-1.24-.12.11-5.7,1.24.12v.64c.29-.5.78-.72,1.44-.66Z"/>
    <path class="cls-1" d="m204.45,316.86c-.72-.07-1.32-.42-1.8-1.04-.47-.62-.7-1.36-.68-2.21.02-.85.27-1.54.76-2.07.5-.53,1.11-.76,1.83-.69.47.04.89.22,1.27.52.38.3.66.69.85,1.16l-1.08.64c-.09-.24-.23-.44-.43-.6-.19-.16-.41-.25-.66-.27-.37-.04-.68.08-.93.35s-.38.63-.39,1.09c0,.44.11.82.34,1.15.24.31.54.48.92.52.25.02.47-.02.67-.13.2-.11.35-.29.45-.51l1.06.83c-.22.43-.53.77-.92,1-.39.23-.82.32-1.28.28Z"/>
    <path class="cls-1" d="m209.42,315.3l1.15-3.73,1.33.13-1.87,5.53c-.27.8-.61,1.36-1.03,1.69-.42.33-.94.45-1.55.35l.03-1.37c.33.04.59-.02.79-.18.2-.16.37-.42.49-.8l-1.86-5.7,1.36.13,1.17,3.95Z"/>
  </g>
  <g>
    <path class="cls-1" d="m329.62,330.91l-.13,6.47,2.57.24-.03,1.5-3.9-.37.16-7.98,1.33.13Z"/>
    <path class="cls-1" d="m336.73,338.87c-.5.53-1.11.76-1.83.69s-1.32-.41-1.79-1.04c-.48-.62-.71-1.36-.69-2.21.02-.84.27-1.53.77-2.06.51-.54,1.11-.77,1.83-.71.71.07,1.31.42,1.79,1.05.48.63.71,1.37.7,2.2-.02.84-.28,1.53-.78,2.07Zm-2.72-1.27c.24.32.55.5.92.53.37.04.69-.08.94-.36.26-.27.39-.64.4-1.09,0-.46-.11-.84-.35-1.16-.24-.32-.55-.5-.92-.53s-.69.08-.94.36c-.25.28-.38.65-.39,1.09,0,.45.1.84.34,1.16Z"/>
    <path class="cls-1" d="m342.79,337.96l.89-3.43,1.32.13-1.64,5.55-1.18-.11-.82-3.54-.96,3.37-1.18-.11-1.42-5.84,1.32.12.75,3.58.95-3.41,1.17.11.81,3.59Z"/>
    <path class="cls-1" d="m352.19,333.05l-.03,1.5-2.69-.26-.04,1.89,2.62.25-.03,1.5-2.62-.25-.06,3.08-1.33-.13.16-7.98,4.02.38Z"/>
    <path class="cls-1" d="m354.3,335.54l-.02.98c.12-.35.31-.6.58-.76s.57-.23.91-.19l-.03,1.64c-.38-.1-.72-.04-1.03.18-.3.21-.46.58-.47,1.13l-.05,2.72-1.24-.12.11-5.7,1.24.12Z"/>
    <path class="cls-1" d="m360.91,339.62l-3.63-.34c.15.73.59,1.13,1.34,1.2.47.04.84-.11,1.09-.47l.99.78c-.49.77-1.2,1.11-2.12,1.02-.79-.08-1.43-.42-1.9-1.04-.47-.62-.7-1.36-.68-2.22.02-.85.27-1.54.75-2.07.48-.53,1.09-.76,1.84-.69.71.07,1.29.41,1.72,1.03.45.62.67,1.36.65,2.21,0,.16-.02.36-.06.6Zm-3.62-1.49l2.45.23c-.06-.38-.2-.68-.41-.89s-.46-.34-.76-.37c-.33-.03-.61.04-.83.22-.22.18-.37.45-.45.81Z"/>
    <path class="cls-1" d="m365.49,337.27v-.67s1.26.12,1.26.12l-.16,7.98-1.24-.12.06-2.95c-.38.52-.9.75-1.57.68-.65-.06-1.2-.4-1.65-1.02-.44-.63-.66-1.36-.64-2.21.02-.84.26-1.52.72-2.07.47-.54,1.04-.78,1.68-.72.67.06,1.19.39,1.54.98Zm-2.36,3.12c.26.32.57.5.95.54.38.04.7-.08.96-.35.26-.28.39-.66.4-1.13,0-.47-.11-.87-.35-1.19-.24-.33-.56-.51-.94-.55-.39-.04-.71.08-.97.36-.26.27-.39.64-.4,1.12,0,.47.11.87.35,1.2Z"/>
    <path class="cls-1" d="m370.99,340.2l.06-3.08,1.24.12-.11,5.7-1.24-.12v-.64c-.29.5-.78.72-1.44.66-.53-.05-.96-.3-1.29-.75-.33-.46-.49-1.05-.48-1.78l.07-3.5,1.24.12-.07,3.32c0,.37.07.67.24.89.17.22.4.35.69.37.33.03.59-.06.78-.29.19-.22.29-.56.3-1.03Z"/>
    <path class="cls-1" d="m378.03,341.25l-3.63-.34c.15.73.59,1.13,1.34,1.2.47.04.84-.11,1.09-.47l.99.78c-.49.77-1.2,1.11-2.12,1.02-.79-.08-1.43-.42-1.9-1.04-.47-.62-.7-1.36-.68-2.22.02-.85.27-1.54.75-2.07.48-.53,1.09-.76,1.84-.69.71.07,1.29.41,1.72,1.03.45.62.67,1.36.65,2.21,0,.16-.02.36-.06.6Zm-3.62-1.49l2.45.23c-.06-.38-.2-.68-.41-.89s-.46-.34-.76-.37c-.33-.03-.61.04-.83.22-.22.18-.37.45-.45.81Z"/>
    <path class="cls-1" d="m381.7,337.98c.53.05.96.3,1.29.75.34.46.5,1.05.48,1.78l-.07,3.5-1.24-.12.07-3.32c0-.37-.07-.67-.24-.89-.17-.22-.4-.35-.69-.37-.33-.03-.59.06-.78.28-.19.22-.3.56-.31,1.03l-.06,3.08-1.24-.12.11-5.7,1.24.12v.64c.29-.5.78-.72,1.44-.66Z"/>
    <path class="cls-1" d="m386.74,344.49c-.73-.07-1.33-.42-1.8-1.04-.47-.62-.7-1.36-.68-2.21.02-.85.27-1.54.76-2.07.5-.53,1.11-.76,1.83-.69.47.04.89.22,1.27.52.38.3.66.69.85,1.15l-1.08.64c-.09-.24-.23-.44-.43-.6-.19-.16-.41-.24-.65-.27-.37-.04-.68.08-.93.35-.25.27-.38.63-.39,1.09,0,.44.1.82.34,1.15.24.31.54.49.92.52.25.02.47-.02.67-.14s.35-.28.45-.51l1.06.83c-.22.44-.53.77-.92,1-.39.23-.82.32-1.28.28Z"/>
    <path class="cls-1" d="m391.72,342.93l1.15-3.73,1.33.13-1.87,5.53c-.27.8-.61,1.36-1.03,1.69-.42.33-.94.45-1.55.35l.03-1.37c.33.04.59-.02.79-.18s.37-.42.49-.8l-1.86-5.7,1.36.13,1.17,3.95Z"/>
  </g>
  <g>
    <path class="cls-1" d="m296.92,255.87c-.7.73-1.53,1.05-2.51.96s-1.79-.57-2.46-1.43c-.66-.88-.97-1.89-.95-3.05.02-1.16.38-2.11,1.07-2.84.7-.74,1.53-1.06,2.51-.97.97.09,1.79.57,2.46,1.44.66.86.98,1.88.96,3.04-.02,1.16-.38,2.11-1.08,2.85Zm-4.01-1.45c.4.53.91.82,1.54.88s1.14-.13,1.56-.58c.43-.45.65-1.06.66-1.82.02-.76-.18-1.41-.59-1.94s-.92-.83-1.53-.89c-.62-.06-1.14.14-1.56.59-.43.45-.65,1.06-.66,1.82-.02.76.18,1.41.59,1.94Z"/>
    <path class="cls-1" d="m303.03,249.5l-.03,1.5-2.69-.26-.04,1.89,2.62.25-.03,1.5-2.62-.25-.06,3.08-1.33-.13.16-7.98,4.02.38Z"/>
    <path class="cls-1" d="m308.02,249.97l-.03,1.5-2.69-.26-.04,1.89,2.62.25-.03,1.5-2.62-.25-.06,3.08-1.33-.13.16-7.98,4.02.38Z"/>
  </g>
  <circle class="cls-1" cx="132.39" cy="205.43" r="1.7"/>
  <circle class="cls-1" cx="152.01" cy="191.76" r="1.7"/>
  <circle class="cls-1" cx="176.11" cy="188.97" r="1.7"/>
  <circle class="cls-1" cx="200.53" cy="197.69" r="1.7"/>
  <circle class="cls-1" cx="220.4" cy="216.65" r="1.7"/>
  <circle class="cls-1" cx="316.56" cy="228.24" r="1.7"/>
  <circle class="cls-1" cx="337.05" cy="214.57" r="1.7"/>
  <circle class="cls-1" cx="361.97" cy="211.78" r="1.7"/>
  <circle class="cls-1" cx="387.31" cy="220.89" r="1.7"/>
  <circle class="cls-1" cx="407.63" cy="240.36" r="1.7"/>
</svg>