<?xml version="1.0" encoding="UTF-8"?>
<svg id="_레이어_1" data-name="레이어 1" xmlns="http://www.w3.org/2000/svg" viewBox="0 0 600 500">
  <defs>
    <style>
      .cls-1 {
        fill: #fffbd7;
      }

      .cls-1, .cls-2 {
        stroke-width: 0px;
      }

      .cls-2 {
        fill: #b7b6b6;
      }
    </style>
  </defs>
  <path class="cls-2" d="m397,316.99c-6.02,0-12.07-.58-18.1-1.74l-292.65-56.58c-1.63-.32-3.28-.61-4.93-.9-8.24-1.47-16.76-2.98-24.14-7.45-6.78-4.1-11.92-11.14-14.11-19.32-1.85-6.93-1.47-14.37,1.09-20.95,1.24-3.2,2.98-6.21,5.18-8.95l79.84-99.85c21.21-26.53,55.16-39.81,88.61-34.65l294.76,45.41c10.53,1.62,19.33,8,24.15,17.5,4.82,9.5,4.76,20.37-.15,29.82l-55.1,105.98c-9.6,18.48-24.51,33.03-43.11,42.09-13.07,6.37-27.1,9.6-41.33,9.6ZM203.48,67.13c-28.07,0-55.15,12.78-73.02,35.13l-79.84,99.85c-2.09,2.61-3.75,5.48-4.93,8.52-2.43,6.26-2.8,13.34-1.03,19.93,2.08,7.78,6.95,14.46,13.38,18.34,7.13,4.31,15.49,5.8,23.58,7.24,1.66.3,3.31.59,4.95.91l292.65,56.58c40.89,7.9,81.39-11.82,100.76-49.09l55.1-105.98c4.67-8.98,4.72-19.3.14-28.32-4.57-9.02-12.93-15.08-22.93-16.62l-294.76-45.41c-4.69-.72-9.39-1.08-14.06-1.08Z"/>
  <path class="cls-2" d="m393.44,313.5c-5.83,0-11.7-.56-17.54-1.69l-279.24-53.98c-5.53-1.07-11.17-2.16-16.74-3.26-5.51-1.08-9.81-2.37-13.53-4.05-4.82-2.18-8.7-5.11-11.53-8.69-.45-.57-.88-1.16-1.29-1.77-4.53-6.68-6.48-15.07-5.36-23.02.8-5.68,3.16-11.1,6.82-15.68l77.8-97.31c20.56-25.71,53.47-38.58,85.89-33.59l287.24,44.25c10.1,1.56,18.55,7.68,23.17,16.79,4.62,9.12,4.57,19.54-.15,28.61l-53.69,103.28c-9.31,17.91-23.76,32.02-41.79,40.8-12.67,6.17-26.27,9.31-40.06,9.31ZM204.85,70.02c-27.51,0-54.03,12.52-71.54,34.42l-77.8,97.31c-3.59,4.49-5.9,9.81-6.69,15.38-1.1,7.8.81,16.03,5.26,22.59.4.59.83,1.17,1.27,1.73,2.77,3.51,6.57,6.37,11.3,8.51,3.67,1.66,7.93,2.94,13.39,4.01,5.57,1.09,11.21,2.19,16.74,3.26l279.24,53.98c40.06,7.75,79.74-11.58,98.72-48.1l53.69-103.28c4.62-8.89,4.67-19.11.14-28.05-4.53-8.94-12.81-14.94-22.71-16.46l-287.24-44.25c-4.59-.71-9.2-1.05-13.77-1.05Z"/>
  <polygon class="cls-1" points="458.71 293.45 458.1 292.9 458.72 293.44 458.71 293.45"/>
  <path class="cls-2" d="m53.64,240.11c-3.47-10.62-1.46-22.17,5.36-30.9l76.77-98.19c20.28-25.94,52.76-38.93,84.75-33.89l283.44,44.65c8.21,1.29,15.4,5.76,20.26,12.59,4.99,7.01,6.97,15.87,5.46,24.29l-.61-.11c1.49-8.26-.46-16.95-5.35-23.83-4.76-6.69-11.81-11.08-19.85-12.34l-283.44-44.65c-31.78-5-64.03,7.89-84.17,33.66l-76.77,98.19c-6.7,8.57-8.66,19.91-5.26,30.33l.02.1h-.32s-.28.1-.28.1Z"/>
  <path class="cls-2" d="m406.68,419.88c-5.08,0-10.34-.61-15.64-1.82l-302.3-68.96c-7.73-1.76-13.88-7.9-15.66-15.62-2.81-12.2-7.08-30.58-11.45-48.85-7.16-29.86-16.58-48.18-16.67-48.36l1.46-.76c.1.18,9.61,18.66,16.81,48.73,4.38,18.28,8.65,36.66,11.46,48.86,1.64,7.12,7.3,12.77,14.42,14.39l302.3,68.96c5.32,1.22,10.62,1.83,15.68,1.78,17.93-.12,52.26-5.81,67.2-26.4l61.31-92.75c3.71-5.11,5.58-11.37,5.28-17.64-.21-4.36-.42-8.71-.63-13.06-.26-5.44-.53-10.88-.8-16.32-.3-5.97-.6-11.93-.9-17.9-.31-5.94-.62-11.87-.94-17.81-.38-8.31-.92-16.75-1.44-24.92l-.15-2.34c-.51-7.91-1.04-16.09-.31-24.17.09-.96.19-1.92.31-2.88.43-3.38.98-6.81,1.69-10.49.19-1,.39-2,.61-2.99l1.6.36c-.22.98-.41,1.96-.6,2.94-.7,3.64-1.25,7.04-1.67,10.38-.12.94-.22,1.88-.3,2.82-.71,7.95-.19,16.07.32,23.92l.15,2.34c.52,8.17,1.06,16.62,1.44,24.94.32,5.93.63,11.87.94,17.8.31,5.97.61,11.93.9,17.9.27,5.44.54,10.88.8,16.32.21,4.36.42,8.71.63,13.07.32,6.64-1.66,13.26-5.57,18.65l-61.31,92.75c-15.35,21.15-50.3,26.99-68.54,27.11-.14,0-.28,0-.42,0Z"/>
  <path class="cls-2" d="m399.16,352.61c-14.93,0-25.92-2.9-26.05-2.94-2.62-.52-264.98-52.57-286.54-58.38-21.74-5.85-27.24-17.49-27.46-17.98l.75-.34c.05.12,5.6,11.79,26.93,17.53,21.54,5.8,283.87,57.85,286.51,58.37.17.05,15.02,3.96,33.59,2.65,17.12-1.21,41.02-7.23,57.67-29.04,15.72-23.58,65.14-119.02,65.64-119.98,1.02-2.13,1.89-3.84,2.66-5.34,2.66-5.2,3.66-7.15,3.23-12.6l.82-.06c.45,5.68-.58,7.69-3.32,13.04-.77,1.5-1.64,3.2-2.66,5.33-.5.97-49.95,96.45-65.71,120.09-16.86,22.09-41.01,28.17-58.31,29.39-2.68.19-5.27.27-7.76.27Z"/>
  <polygon class="cls-1" points="66.01 299.79 66.01 299.5 65.73 299.6 66 299.49 66.01 299.5 66 299.49 66.01 299.49 66.01 299.17 66.3 299.37 66.23 299.72 66.02 299.5 66.01 299.79"/>
  <path class="cls-2" d="m403.2,394.07c-14.93,0-25.93-2.9-26.05-2.94-2.61-.54-263.2-54.25-284.76-60.05-12.12-4.44-20.28-11.49-24.28-20.96l-.06-.06v-.19s.4,0,.4,0l.3-.27.09.13c3.9,9.29,11.91,16.21,23.8,20.57,21.5,5.78,282.07,59.49,284.7,60.03.17.04,15.01,3.95,33.59,2.65,17.12-1.21,41.02-7.23,57.67-29.05,15.71-23.57,64.88-123.09,65.37-124.09.45-1.06.89-2.02,1.28-2.9,2-4.43,3.1-6.87,3.1-14.06h.82c0,7.37-1.19,10.02-3.17,14.4-.4.88-.82,1.83-1.29,2.9-.5,1.02-49.69,100.58-65.45,124.22-16.86,22.09-41.01,28.17-58.31,29.39-2.67.19-5.27.27-7.76.27Z"/>
  <g>
    <path class="cls-2" d="m209.47,333.86c0-.29,1.2-.3,2.65-.02,1.46.28,2.63.74,2.63,1.03,0,.21-.63.27-1.53.18l-.97-.82c-.06-.05-.14-.07-.2-.04l-.88.38c.7.26,1.43.55,2.19.89.76.34,1.47.68,2.14,1.03h0c.46.22.73.44.73.61,0,.14-.19.24-.51.3v-.12s0-.08-.02-.12c-.02-.05-.06-.08-.07-.1-.08-.08-.19-.2-.33-.32-.28-.24-.51-.38-.8-.54-.78-.44-1.39-.72-1.59-.81-.28-.13-.51-.23-.63-.28-.31-.13-.73-.3-1.24-.48-.92-.26-1.56-.57-1.56-.78Zm6.64,7.64h0s0,0,0,0c0,0,0,0,0,0-.24-.16-.59-.39-1.04-.65-.39-.22-1.65-.92-4.57-1.77-.53-.15-1.26-.36-2.13-.56l.03-1.16c-.84.02-1.36.15-1.37.41,0,.22.36.5.98.78.21.1.43.17.65.22.41.1.82.21,1.25.33,2.16.63,4.07,1.48,5.7,2.38v.14c0,.08-.05.14-.11.17l-1.1.47c1.21.07,2.02-.05,2.03-.36,0-.12-.11-.26-.32-.4Zm-1.31,1.77h0s0,0,0,0c-.09-.05-.2-.11-.34-.17-.41-.2-.83-.4-1.27-.59-1.19-.53-2.34-.96-3.42-1.32-.48-.16-.94-.42-1.36-.77h0c-.06-.05-.1-.14-.1-.22v-.4c-.56.04-.89.16-.9.36,0,.28.63.65,1.63,1.01.22.08.44.15.66.2.07.02.15.04.23.06,1.2.32,2.27.82,3.19,1.37l-1.12.48c-.07.03-.15.01-.22-.04l-1.29-1.08c-1.55-.16-1.89.03-1.93.23-.08.49,1.58,1.72,3.27,2.04,1.68.32,3.38-.26,3.33-.77-.01-.1-.1-.24-.37-.4Zm-3.62-10.58c.27-.05.61-.06,1.01.01s.73.22,1,.37c.12.07.22-.09.12-.2-.06-.07-.11-.13-.16-.18-.29-.32-.54-.49-.77-.9-.08-.14-.13-.25-.16-.33-.03.06-.09.16-.18.27-.25.31-.5.39-.81.6-.05.03-.11.07-.17.12-.1.08-.01.27.11.25Zm5.48,6.59c-.18-.16-.98-.64-.98-.64-2.1-1.33-3.94-1.91-5.13-2.27-.51-.16-1.23-.36-2.1-.54.01-.05.05-.1.1-.12l1.25-.54c-1.14-.07-1.9.04-1.91.33,0,.1.08.21.24.33.17.13.35.2.54.23.39.07.79.15,1.2.26,2.34.59,4.3,1.63,5.82,2.65l-.03,1.12c.8-.02,1.29-.16,1.3-.41,0-.12-.1-.25-.3-.4Z"/>
    <path class="cls-2" d="m224.63,338.55l3.64.7v.42s-1.07-.2-1.07-.2l-.42-.08-.73-.14-.05,1.81.6.11.32.06.91.18v.4s-.86-.16-.86-.16l-.38-.07-.6-.11-.05,1.98s0,.07.03.11c.02.03.04.05.07.06.18.03.36.07.53.1.05,0,.1.02.15.03h0s1.41.28,1.41.28v.42s-3.04-.58-3.04-.58l.12-4.44c0-.12,0-.21-.03-.28-.02-.06-.05-.11-.09-.15-.04-.04-.1-.07-.16-.09-.07-.03-.16-.05-.26-.07h-.07s0-.26,0-.26Zm6.41,6l-.53-.1c-.17-.03-.23-.08-.25-.11-.02-.04-.05-.11-.05-.29l.12-4.41-.21-.04c-.1-.02-.21-.04-.35-.06-.14-.02-.28-.05-.43-.08l-.45-.09v.25s.06.01.06.01c.09.02.17.04.25.06.07.02.12.05.17.09.04.04.07.09.09.15.02.07.03.16.03.28l-.12,4.44,2.98.57v-.42s-.95-.19-.95-.19l-.36-.07Zm4.29.82l-.53-.1c-.17-.03-.23-.08-.25-.11-.02-.04-.05-.11-.05-.29l.12-4.41-.21-.04c-.1-.02-.21-.04-.35-.06-.14-.02-.28-.05-.43-.08l-.45-.09v.25s.06.01.06.01c.09.02.17.04.25.06.07.02.12.05.17.09.04.04.07.09.09.15.02.07.03.16.03.28l-.12,4.44,2.98.57v-.42s-.95-.19-.95-.19l-.36-.07Zm4.59-3.91l1.87,5.58-.91-.18-.02-.05c-.09-.29-.18-.59-.28-.88,0-.02-.02-.05-.02-.07l-2.18-.42s-.04.08-.05.12c0,.02-.01.03-.02.05h0s-.32.7-.32.7l-.47-.09.33-.7h0l1.92-4.12h.13s.02.06.02.06Zm.25,3.2l-.6-1.79-.71,1.54-.17.37s-.02.03-.03.06c-.03.06-.06.12-.1.2,0,0,0,.02-.01.03l1.87.36c-.04-.11-.07-.22-.11-.33l-.14-.43Zm1.99-2.32l1.44.28-.13,4.74.82.16.13-4.74,1.44.28v-.42s-3.68-.71-3.68-.71v.42Zm4.9,5.71l.83.16.14-5.17-.83-.16-.14,5.17Zm-26.03-9.13c.14-.18.31-.31.52-.39.21-.08.46-.1.75-.04.32.06.62.2.87.41.26.21.48.48.66.8l.04.07.15-.11-.03-.06c-.2-.41-.47-.76-.79-1.04-.33-.28-.7-.46-1.1-.54-.34-.07-.66-.05-.95.04-.29.09-.54.24-.76.44-.21.2-.38.46-.51.76-.12.29-.18.61-.2.96h0s0,0,0,0c0,0,0,0,0,0h0c0,.35.04.69.14,1.02.11.34.26.66.46.94.2.28.44.53.72.72.28.2.6.33.94.4.41.08.78.04,1.12-.11.34-.15.62-.4.84-.73l.03-.05-.15-.17-.04.06c-.19.25-.43.43-.69.54-.26.11-.56.13-.88.07-.29-.06-.54-.17-.74-.33-.2-.16-.37-.36-.5-.59-.13-.23-.22-.48-.28-.76-.06-.28-.08-.56-.08-.85s.05-.56.12-.81c.07-.25.18-.47.32-.65Zm32.06,9c-.19.25-.43.43-.69.54-.26.11-.56.13-.88.07-.29-.06-.54-.17-.74-.33-.2-.16-.37-.36-.5-.59-.13-.23-.22-.48-.28-.76-.06-.28-.08-.56-.08-.85s.05-.56.12-.81c.07-.25.18-.47.32-.65.14-.18.31-.31.52-.39.21-.08.46-.1.75-.04.32.06.62.2.87.41.26.21.48.48.66.8l.04.07.15-.11-.03-.06c-.2-.41-.47-.76-.79-1.04-.33-.28-.7-.46-1.1-.54-.34-.07-.66-.05-.95.04-.29.09-.54.24-.76.44-.21.2-.38.46-.51.76-.12.29-.19.61-.2.96h0s0,0,0,0c0,0,0,0,0,0h0c0,.35.04.69.14,1.02.11.34.26.66.46.94.2.28.44.53.72.72.28.2.6.33.94.4.41.08.78.04,1.12-.11.34-.15.62-.4.84-.73l.03-.05-.15-.17-.04.06Z"/>
  </g>
  <path class="cls-2" d="m410.6,430.46c-9.58,0-19.16-1.6-28.25-3.27-7.48-1.37-15.06-2.92-22.38-4.41-3.74-.76-7.48-1.52-11.23-2.27-4.97-.99-9.93-1.98-14.9-2.97-5.41-1.08-10.82-2.17-16.22-3.26-5.77-1.16-11.54-2.33-17.31-3.51-6.06-1.23-12.11-2.47-18.16-3.71-6.26-1.29-12.51-2.58-18.77-3.89-6.38-1.33-12.76-2.67-19.14-4.02-6.43-1.36-12.85-2.73-19.27-4.11-6.39-1.38-12.78-2.77-19.16-4.17-6.27-1.38-12.55-2.77-18.81-4.19-6.47-1.46-12.43-2.82-18.23-4.16-6.02-1.4-11.87-2.78-17.4-4.1-5.81-1.39-11.15-2.7-16.34-4-3.5-.88-6.99-1.77-10.48-2.67-2.99-.78-6.05-1.53-9.01-2.27-12.34-3.05-25.11-6.21-36.81-11.78-11.4-5.43-22.45-16.04-19.27-29.55,1.32-5.59,4.67-11.27,9.2-15.58l1.13,1.19c-4.3,4.09-7.49,9.47-8.73,14.76-2.95,12.56,7.56,22.54,18.38,27.69,11.55,5.5,24.24,8.64,36.5,11.67,2.97.73,6.03,1.49,9.03,2.27,3.48.91,6.97,1.79,10.47,2.67,5.18,1.3,10.52,2.61,16.32,4,5.52,1.33,11.37,2.71,17.39,4.1,5.79,1.34,11.75,2.71,18.22,4.16,6.26,1.41,12.53,2.8,18.81,4.18,6.38,1.4,12.77,2.79,19.15,4.17,6.42,1.38,12.84,2.75,19.26,4.11,6.38,1.35,12.75,2.69,19.13,4.02,6.25,1.3,12.51,2.6,18.77,3.89,6.05,1.25,12.1,2.48,18.16,3.71,5.77,1.17,11.54,2.34,17.31,3.5,5.41,1.09,10.81,2.17,16.22,3.26,4.97.99,9.93,1.98,14.9,2.97,3.75.74,7.49,1.51,11.23,2.27,7.32,1.49,14.88,3.03,22.35,4.4,10.44,1.92,21.53,3.74,32.44,3.11,7.61-.44,15.64-1.62,24.54-3.6,8.03-1.79,14.94-3.91,21.13-6.46,4.86-2.01,11.13-4.83,16.42-8.88,5.03-3.85,9.45-9.04,14.34-16.84,3.94-6.28,8.17-12.51,12.27-18.53l2.89-4.25c5.48-8.05,11.4-16.67,19.19-27.93,3.54-5.11,7.08-10.22,10.63-15.32l6.08-8.77c.77-1.1,1.54-2.21,2.31-3.31,2.25-3.22,4.57-6.54,6.75-9.88,4.37-6.71,5.35-14.92,2.76-23.11-2.43-7.7-7.73-14.01-13.83-16.45l.61-1.52c6.54,2.62,12.2,9.32,14.78,17.48,2.7,8.54,1.63,17.47-2.95,24.5-2.19,3.36-4.52,6.7-6.78,9.92-.77,1.1-1.54,2.2-2.31,3.31l-6.08,8.77c-3.55,5.11-7.09,10.21-10.63,15.32-7.79,11.26-13.71,19.87-19.18,27.92l-2.89,4.25c-4.09,6.01-8.32,12.23-12.24,18.48-5,7.97-9.54,13.3-14.73,17.27-5.45,4.17-11.84,7.05-16.79,9.09-6.28,2.59-13.28,4.73-21.4,6.54-8.99,2.01-17.1,3.2-24.8,3.64-1.52.09-3.05.13-4.58.13Z"/>
  <path class="cls-2" d="m408.77,434.51c-.39,0-.79,0-1.18,0-8.56-.11-17.06-1.71-24.97-3.43-5.39-1.17-10.92-2.2-16.26-3.19-3-.56-5.99-1.11-8.98-1.69-7.87-1.54-15.75-3.1-23.63-4.66-7.54-1.49-15.08-3-22.62-4.52-7.21-1.44-14.41-2.91-21.61-4.38-6.87-1.4-13.74-2.81-20.61-4.23-6.54-1.35-13.06-2.72-19.59-4.1-6.2-1.31-12.4-2.62-18.59-3.95-5.85-1.26-11.72-2.53-17.57-3.81-5.53-1.21-11.04-2.43-16.56-3.67-5.19-1.16-10.38-2.33-15.56-3.52-4.85-1.12-9.7-2.24-14.53-3.38-4.52-1.07-9.02-2.15-13.53-3.24-4.18-1.02-8.35-2.04-12.52-3.1-3.84-.97-7.67-1.95-11.51-2.96-7.39-1.94-13.08-3.49-18.46-5.02l-.21-.06c-7.3-2.09-14.84-4.24-22.19-6.57-5.9-1.87-13.45-4.65-19.5-9.61-3.79-3.1-6.58-7.37-8.08-12.33-.95-3.16-1.38-6.45-1.25-9.53l.82.04c-.13,2.98.29,6.18,1.21,9.26,1.45,4.81,4.15,8.94,7.81,11.93,5.94,4.88,13.4,7.62,19.23,9.47,7.33,2.33,14.87,4.48,22.16,6.56l.21.06c5.37,1.53,11.05,3.08,18.44,5.01,3.83,1,7.67,1.99,11.5,2.96,4.17,1.05,8.34,2.08,12.52,3.09,4.51,1.09,9.01,2.18,13.53,3.24,4.83,1.14,9.69,2.26,14.53,3.38,5.18,1.19,10.37,2.36,15.55,3.52,5.52,1.24,11.03,2.45,16.56,3.67,5.85,1.28,11.71,2.55,17.57,3.81,6.19,1.33,12.39,2.64,18.59,3.95,6.53,1.38,13.05,2.74,19.59,4.1,6.86,1.42,13.73,2.83,20.6,4.23,7.2,1.47,14.4,2.93,21.61,4.38,7.54,1.52,15.08,3.02,22.62,4.52,7.88,1.56,15.75,3.11,23.63,4.65,2.99.58,5.98,1.14,8.97,1.69,5.35.99,10.88,2.02,16.29,3.19,7.86,1.71,16.31,3.31,24.8,3.41,5.57.06,11.63-.37,19.09-1.39,5.52-.75,11.02-1.77,16.36-3.03,5.78-1.36,11.27-3,16.31-4.88,5.54-2.06,10.34-4.32,14.64-6.9,4.68-2.81,8.39-5.77,11.34-9.07,1.28-1.42,2.4-2.89,3.32-4.37,11.12-17.63,34.71-51.61,50.32-74.09,6.97-10.03,12.47-17.96,14.07-20.42,4.46-6.86,5.43-15.24,2.75-23.6l.78-.25c2.72,8.48,1.68,17.33-2.85,24.3-1.61,2.47-6.84,10.01-14.08,20.44-15.61,22.48-39.2,56.45-50.3,74.06-.95,1.52-2.1,3.02-3.41,4.48-3.01,3.36-6.78,6.37-11.53,9.22-4.35,2.61-9.19,4.88-14.78,6.96-5.08,1.89-10.6,3.54-16.41,4.91-5.36,1.27-10.89,2.29-16.43,3.05-6.98.95-12.75,1.41-18.03,1.41Z"/>
  <path class="cls-2" d="m166.81,184.62c-1.55,0-2.77-.6-3.03-1.62-.36-1.38,1.18-2.93,3.49-3.53,2.32-.6,4.41.01,4.77,1.39h0c.18.7-.11,1.46-.83,2.14-.65.62-1.6,1.11-2.66,1.39-.6.16-1.19.23-1.73.23Zm2.18-4.56c-.46,0-.97.06-1.51.2-1.97.51-3.11,1.74-2.91,2.53.2.79,1.8,1.31,3.77.8.93-.24,1.75-.66,2.3-1.19.48-.46.7-.95.6-1.34h0c-.15-.57-1.03-1-2.25-1Z"/>
  <path class="cls-2" d="m164.62,183.46l-.38-.15c.38-1,1.66-1.91,3.26-2.32,1.77-.46,3.51-.18,4.22.68l-.32.26c-.61-.73-2.21-.96-3.8-.54-1.45.37-2.65,1.2-2.98,2.07Z"/>
  <path class="cls-2" d="m170.29,175.93l-.37-.18c.46-.94,1.69-1.76,3.19-2.14,1.91-.49,3.74-.13,4.34.86l-.35.21c-.5-.82-2.17-1.11-3.89-.67-1.37.35-2.51,1.11-2.92,1.93Z"/>
  <path class="cls-2" d="m177.87,169.61c-1.02,0-1.9-.27-2.42-.76l-.09-.09.04-.12c.32-1.04,1.65-2.02,3.31-2.45,1.67-.43,3.31-.22,4.09.54l.09.09-.04.12c-.32,1.04-1.65,2.03-3.32,2.45-.57.15-1.14.22-1.67.22Zm-2.03-.97c.71.58,2.16.73,3.6.35,1.44-.37,2.65-1.2,2.99-2.05-.71-.58-2.17-.72-3.61-.35-1.44.37-2.64,1.2-2.98,2.05Z"/>
  <path class="cls-2" d="m183.08,162.22c-1.25,0-2.28-.4-2.69-1.12l-.05-.09.04-.1c.44-.95,1.7-1.81,3.21-2.2,1.96-.5,3.8-.13,4.38.9l.05.09-.05.1c-.46.96-1.69,1.8-3.22,2.19-.58.15-1.15.22-1.69.22Zm-2.27-1.23c.55.78,2.18,1.05,3.86.61,1.34-.34,2.46-1.07,2.9-1.87-.55-.78-2.18-1.05-3.87-.62-1.34.34-2.46,1.07-2.89,1.87Z"/>
  <path class="cls-2" d="m188.88,155.03c-1.24,0-2.27-.39-2.69-1.1l-.06-.11.06-.11c.52-.85,1.7-1.61,3.1-1.97,1.94-.5,3.78-.13,4.37.89l.06.11-.06.1c-.52.86-1.7,1.61-3.09,1.97-.58.15-1.15.22-1.68.22Zm-2.27-1.21c.57.77,2.19,1.02,3.85.59,1.23-.31,2.27-.95,2.77-1.67-.56-.77-2.18-1.03-3.84-.6-1.23.32-2.28.96-2.78,1.68Z"/>
  <path class="cls-2" d="m172.59,177.22c-1.55,0-2.77-.6-3.03-1.62-.36-1.38,1.18-2.93,3.49-3.53,2.32-.6,4.41.01,4.77,1.39h0c.18.7-.11,1.46-.83,2.14-.65.62-1.6,1.11-2.66,1.39-.6.16-1.19.23-1.73.23Zm2.18-4.56c-.46,0-.97.06-1.51.2-1.97.51-3.11,1.74-2.9,2.53.2.79,1.8,1.31,3.77.8.93-.24,1.75-.66,2.3-1.19.48-.46.7-.95.6-1.34h0c-.15-.57-1.03-1-2.25-1Z"/>
  <path class="cls-2" d="m177.85,169.82c-1.07,0-1.99-.29-2.54-.83-.24-.21-.41-.49-.48-.79-.18-.7.11-1.46.83-2.14.65-.62,1.6-1.11,2.66-1.39,2.32-.6,4.41.01,4.77,1.39.08.31.07.63-.03.94-.34,1.11-1.73,2.15-3.47,2.59-.6.16-1.19.23-1.74.23Zm2.19-4.55c-.46,0-.98.06-1.52.2-.93.24-1.75.66-2.3,1.19-.48.46-.7.95-.6,1.34.04.15.12.28.25.4.63.61,2.07.77,3.51.4,1.45-.37,2.63-1.21,2.89-2.04h0c.05-.17.06-.34.02-.5-.15-.57-1.03-.99-2.25-.99Z"/>
  <path class="cls-2" d="m183.09,162.42c-1.33,0-2.43-.44-2.88-1.22-.08-.16-.13-.28-.16-.4-.36-1.38,1.18-2.93,3.49-3.53,2.32-.6,4.41.01,4.77,1.39.1.39.06.8-.14,1.23h0c-.48,1.02-1.77,1.9-3.36,2.3-.59.15-1.18.23-1.72.23Zm2.17-4.55c-.46,0-.98.06-1.52.2-1.99.52-3.11,1.72-2.9,2.53.02.06.04.13.08.21.37.65,1.85,1.06,3.68.58,1.34-.34,2.44-1.07,2.82-1.85.11-.25.14-.47.09-.67-.15-.57-1.03-1-2.25-1Z"/>
  <path class="cls-2" d="m188.89,155.24c-1.32,0-2.43-.43-2.88-1.2-.07-.14-.14-.28-.17-.43-.35-1.37,1.19-2.92,3.5-3.52,2.32-.6,4.41.01,4.77,1.4.12.48.03.99-.29,1.48-.55.9-1.78,1.69-3.21,2.05-.59.15-1.17.23-1.72.23Zm2.16-4.56c-.46,0-.97.06-1.51.2-1.96.51-3.11,1.74-2.91,2.53.02.07.06.16.09.23.38.64,1.87,1.05,3.68.57,1.24-.32,2.28-.96,2.72-1.69h0c.19-.31.25-.59.19-.84-.15-.57-1.03-1.01-2.26-1.01Z"/>
  <polygon class="cls-2" points="170.2 207.56 134 200.62 131.92 203.09 131.29 202.56 133.68 199.72 133.92 199.77 170.35 206.75 170.2 207.56"/>
  <rect class="cls-2" x="217.46" y="123.22" width=".82" height="19.09" transform="translate(52.5 327.05) rotate(-80.95)"/>
  <rect class="cls-2" x="190.61" y="139.16" width="13.53" height=".82" transform="translate(-32.49 214.4) rotate(-53.3)"/>
  <polygon class="cls-2" points="204.53 130.83 204.29 130.8 185.68 127.83 183.88 130.24 183.22 129.75 185.32 126.94 185.56 126.98 204.17 129.95 212.26 119.09 215.45 119.6 215.32 120.41 212.62 119.98 204.53 130.83"/>
  <path class="cls-2" d="m382.63,269.87c-2.09,0-4.19-.14-6.3-.42-10.26-1.4-18.84-6.2-22.94-12.86-2.78-4.52-3.36-9.5-1.67-14.42h0c4.3-12.52,22.3-20.75,40.11-18.31,10.26,1.4,18.84,6.2,22.94,12.86,2.78,4.52,3.36,9.5,1.67,14.42-3.79,11.04-18.24,18.74-33.82,18.74Zm-30.13-27.44h0c-1.61,4.68-1.06,9.43,1.59,13.73,3.98,6.45,12.33,11.11,22.36,12.48,17.45,2.37,35.04-5.6,39.22-17.77,1.61-4.68,1.06-9.43-1.59-13.73-3.98-6.45-12.33-11.11-22.36-12.48-17.45-2.37-35.04,5.6-39.22,17.77Z"/>
  <path class="cls-2" d="m382.82,266.8c-1.81,0-3.63-.12-5.46-.37-8.9-1.21-16.34-5.38-19.9-11.16-2.42-3.92-2.92-8.26-1.45-12.53h0c3.73-10.87,19.33-18,34.79-15.89,8.9,1.21,16.34,5.38,19.9,11.16,2.42,3.92,2.92,8.26,1.45,12.53-3.29,9.58-15.82,16.26-29.33,16.26Zm-26.04-23.8c-1.39,4.04-.91,8.13,1.37,11.84,3.43,5.57,10.65,9.6,19.31,10.78,15.08,2.05,30.29-4.83,33.9-15.34,1.39-4.04.91-8.13-1.37-11.84-3.43-5.57-10.65-9.6-19.31-10.78-15.08-2.05-30.29,4.83-33.9,15.34h0Z"/>
  <path class="cls-2" d="m383.8,252.51c-.51,0-1.02-.03-1.53-.1-2.52-.34-4.56-1.5-5.59-3.18-.72-1.18-.88-2.53-.44-3.81.53-1.53,1.84-2.84,3.71-3.7.41-.19.9,0,1.09.4s0,.9-.4,1.09c-1.45.66-2.46,1.64-2.84,2.74-.28.82-.18,1.66.28,2.42.76,1.24,2.42,2.15,4.42,2.42,3.48.48,7.09-1.1,7.89-3.45.35-1.03.11-2.08-.7-2.97-.3-.34-.28-.85.06-1.16.34-.3.85-.28,1.16.06,1.21,1.33,1.58,3.01,1.04,4.61-.95,2.77-4.36,4.64-8.14,4.64Z"/>
  <path class="cls-2" d="m384.53,246.16c-.09,0-.18-.01-.27-.04-.43-.15-.66-.61-.51-1.04l2.26-6.58c.15-.43.61-.66,1.04-.51.43.15.66.61.51,1.04l-2.26,6.58c-.12.34-.44.55-.78.55Z"/>
</svg>