<?xml version="1.0" encoding="UTF-8"?>
<svg id="_레이어_1" data-name="레이어 1" xmlns="http://www.w3.org/2000/svg" viewBox="0 0 600 500">
  <defs>
    <style>
      .cls-1 {
        fill: #fffbd7;
      }

      .cls-1, .cls-2 {
        stroke-width: 0px;
      }

      .cls-2 {
        fill: #b7b6b6;
      }
    </style>
  </defs>
  <polygon class="cls-1" points="13.38 316.65 13.38 316.29 13.04 316.42 13.37 316.28 13.38 316.29 13.37 316.28 13.38 316.28 13.38 315.9 13.74 316.13 13.65 316.56 13.39 316.3 13.38 316.65"/>
  <g>
    <g>
      <path class="cls-2" d="m281.18,320.29s.01,0,0,.02"/>
      <polygon class="cls-1" points="281.37 320.61 281.19 320.31 280.96 320.58 281.18 320.3 281.19 320.31 281.18 320.3 281.19 320.29 281 319.96 281.42 319.99 281.55 320.41 281.2 320.31 281.37 320.61"/>
    </g>
    <path class="cls-2" d="m410.55,440.21c-9.99,5.72-18.53,9.07-22.29,8.74l-.36-.03-.26-.26c-15.9-15.97-34.39-43.91-63.84-96.44-27.1-48.34-35.36-61.92-68-111.81-31.77-48.57-41.53-65.61-57.7-93.83l-2.33-4.06c-17.83-31.1-25.37-55.8-25.29-61.53.08-5.63,19.47-16.77,23.35-18.95,3.82-2.24,23.24-13.33,28.14-10.56,4.99,2.83,22.48,21.82,40.3,52.92l2.33,4.06c16.18,28.22,25.95,45.25,51.79,97.22,26.55,53.38,34.09,67.38,62.1,115.2,30.43,51.97,45.19,82.05,50.94,103.84l.09.35-.16.33c-1.61,3.41-8.82,9.09-18.81,14.81Zm-21.76,6.76c2.79.02,9.71-2.16,20.77-8.5,11.05-6.34,16.44-11.21,17.83-13.62-5.77-21.57-20.47-51.46-50.63-102.96-28.04-47.87-35.59-61.88-62.16-115.32-25.82-51.91-35.57-68.93-51.74-97.12l-2.33-4.06c-18-31.4-35.35-49.8-39.55-52.18-2.86-1.62-17.01,5.19-26.16,10.55-9.26,5.19-22.3,13.96-22.34,17.24-.07,4.83,7.03,29.1,25.03,60.5l2.33,4.06c16.15,28.2,25.9,45.21,57.64,93.73,32.67,49.94,40.94,63.54,68.07,111.93,29.19,52.06,47.55,79.85,63.24,95.73Z"/>
    <path class="cls-2" d="m194.38,137.55l-1.92-2.31c.3-.25,30.86-25.5,65.18-37.35l.98,2.84c-33.8,11.67-63.94,36.57-64.24,36.82Z"/>
    <path class="cls-2" d="m240.62,143.75c-5.59,3.21-12.75,1.26-15.96-4.33s-1.26-12.75,4.33-15.96c5.59-3.21,12.75-1.26,15.96,4.33s1.26,12.75-4.33,15.96Zm-11.13-19.42c-5.11,2.93-6.89,9.48-3.96,14.59,2.93,5.11,9.48,6.89,14.59,3.96,5.11-2.93,6.89-9.48,3.96-14.59s-9.48-6.89-14.59-3.96Z"/>
    <path class="cls-2" d="m237.36,138.06c-2.46,1.41-5.6.55-7.01-1.9-.68-1.2-.86-2.58-.51-3.9.05-.2.26-.32.46-.26s.32.26.26.46c-.31,1.13-.15,2.31.43,3.33,1.2,2.1,3.89,2.83,5.98,1.62s2.82-3.88,1.62-5.98c-.58-1.02-1.52-1.74-2.65-2.05-.2-.05-.32-.26-.26-.46s.26-.32.46-.26c1.32.36,2.42,1.21,3.1,2.4,1.41,2.46.56,5.6-1.89,7Z"/>
    <path class="cls-2" d="m234.99,133.93c-.18.1-.41.04-.51-.14l-2.83-4.93c-.1-.18-.04-.41.14-.51s.41-.04.51.14l2.83,4.93c.1.18.04.41-.14.51Z"/>
  </g>
</svg>