<?xml version="1.0" encoding="UTF-8"?>
<svg id="_레이어_1" data-name="레이어 1" xmlns="http://www.w3.org/2000/svg" viewBox="0 0 200 200">
  <defs>
    <style>
      .cls-1 {
        fill: #404040;
        stroke-width: 0px;
      }
    </style>
  </defs>
  <path class="cls-1" d="m120.22,100.26v-29.72l-19.75,11.78-18.56-11.2v-6.6l18.33,10.94,26.63-16.08c2.05,3.27,3.52,6.95,4.25,10.88h3.98c-2.76-16.76-17.34-29.58-34.87-29.58-19.49,0-35.34,15.85-35.34,35.34s15.85,35.34,35.34,35.34c17.53,0,32.11-12.83,34.87-29.58h-3.98c-1.37,7.39-5.33,13.87-10.91,18.48m-19.98-55.66c9.81,0,18.58,4.52,24.35,11.58l-24.35,14.7-22.24-13.27v11.14l-6.99-4.22c4.6-11.66,15.97-19.93,29.24-19.93m-31.42,31.42c0-2.64.33-5.21.95-7.66l8.23,4.97v24.86c-5.67-5.69-9.18-13.53-9.18-22.17m13.1,25.5v-25.83l18.54,11.2,15.84-9.45v25.58c-4.7,2.81-10.2,4.43-16.06,4.43-6.84,0-13.16-2.2-18.33-5.92"/>
  <path class="cls-1" d="m27.18,141.53c.79-.83,1.73-1.51,2.78-2.01,1.05-.49,2.21-.74,3.45-.74,1.41,0,2.75.32,3.98.96,1.23.64,2.27,1.52,3.07,2.61l.24.32,1.46-.82-.32-.41c-1.06-1.37-2.41-2.47-4.01-3.28-1.61-.81-3.39-1.22-5.29-1.22-1.6,0-3.12.3-4.52.88-1.39.58-2.62,1.38-3.67,2.38-1.05,1-1.88,2.19-2.49,3.54-.61,1.36-.92,2.83-.92,4.37s.31,3.01.92,4.37c.6,1.35,1.44,2.55,2.49,3.56,1.05,1.01,2.28,1.82,3.67,2.4,1.39.58,2.91.88,4.52.88,1.9,0,3.68-.41,5.29-1.22,1.6-.81,2.95-1.93,4.01-3.33l.31-.41-1.45-.82-.24.32c-.8,1.09-1.84,1.97-3.07,2.61-1.23.64-2.57.96-3.98.96-1.25,0-2.41-.24-3.45-.72-1.05-.48-1.98-1.16-2.77-2-.79-.85-1.42-1.85-1.86-2.97-.45-1.12-.67-2.35-.67-3.63s.23-2.5.67-3.63c.44-1.12,1.07-2.11,1.86-2.95"/>
  <polygon class="cls-1" points="58.84 141.84 66.97 159.32 70.91 159.32 60.49 136.93 59.21 136.93 48.8 159.32 50.71 159.32 58.84 141.84"/>
  <path class="cls-1" d="m94.71,146.89c.9-1.11,1.35-2.43,1.35-3.93,0-.82-.13-1.6-.4-2.32-.27-.73-.7-1.39-1.27-1.94-.57-.55-1.3-.99-2.18-1.3-.86-.3-1.9-.46-3.09-.46h-10.14v22.39h3.71v-10.35h4.06l7.5,10.35h4.53l-7.62-10.54c1.58-.29,2.77-.92,3.56-1.89m-12.02-8.23h5.82c.84,0,1.52.11,2.01.33.48.21.85.51,1.11.88.27.39.45.83.54,1.33.1.54.15,1.13.15,1.76s-.05,1.22-.15,1.75c-.09.5-.27.93-.54,1.3-.26.36-.63.65-1.11.86-.49.22-1.17.33-2.01.33h-5.82v-8.55Z"/>
  <polygon class="cls-1" points="106.49 159.32 123.71 159.32 123.71 157.6 110.2 157.6 110.2 148.97 121.21 148.97 121.21 147.25 110.2 147.25 110.2 138.66 123.71 138.66 123.71 136.93 106.49 136.93 106.49 159.32"/>
  <polygon class="cls-1" points="150.81 137.02 150.81 137.36 142.22 148.32 134.5 136.93 130.66 136.93 130.66 159.32 132.44 159.32 132.44 141.08 140.45 152.68 141.98 152.68 150.81 141.38 150.81 159.32 154.47 159.32 154.47 136.93 151.26 136.93 150.81 137.02"/>
  <polygon class="cls-1" points="179.06 138.66 179.06 136.93 161.85 136.93 161.85 159.32 179.06 159.32 179.06 157.6 165.55 157.6 165.55 148.97 176.56 148.97 176.56 147.25 165.55 147.25 165.55 138.66 179.06 138.66"/>
</svg>