<?xml version="1.0" encoding="UTF-8"?>
<svg id="_레이어_1" data-name="레이어 1" xmlns="http://www.w3.org/2000/svg" viewBox="0 0 200 60">
  <defs>
    <style>
      .cls-1 {
        fill: #404040;
        stroke-width: 0px;
      }
    </style>
  </defs>
  <path class="cls-1" d="m47.22,47.01v-20.86l-13.86,8.27-13.02-7.86v-4.63l12.87,7.68,18.69-11.28c1.44,2.3,2.47,4.88,2.98,7.64h2.79c-1.94-11.76-12.17-20.76-24.47-20.76-13.68,0-24.81,11.13-24.81,24.81s11.13,24.81,24.81,24.81c12.3,0,22.54-9,24.47-20.76h-2.79c-.96,5.18-3.74,9.74-7.66,12.97ZM33.19,7.94c6.88,0,13.04,3.17,17.09,8.13l-17.09,10.32-15.61-9.31v7.82l-4.91-2.96c3.23-8.18,11.21-13.99,20.52-13.99ZM11.14,30c0-1.85.23-3.65.67-5.38l5.78,3.49v17.45c-3.98-3.99-6.44-9.49-6.44-15.56Zm9.19,17.9v-18.13l13.02,7.86,11.12-6.63v17.95c-3.3,1.97-7.16,3.11-11.27,3.11-4.8,0-9.24-1.54-12.86-4.16Z"/>
  <g>
    <path class="cls-1" d="m82.7,25.37c.56-.59,1.21-1.06,1.95-1.41.73-.34,1.55-.52,2.42-.52.99,0,1.93.23,2.79.67.87.45,1.59,1.07,2.15,1.83l.17.23,1.02-.58-.22-.29c-.74-.96-1.69-1.73-2.82-2.3-1.13-.57-2.38-.86-3.71-.86-1.12,0-2.19.21-3.17.62-.97.41-1.84.97-2.57,1.67-.73.7-1.32,1.54-1.75,2.49-.43.95-.64,1.99-.64,3.07s.22,2.11.64,3.07c.43.95,1.01,1.79,1.75,2.5.73.71,1.6,1.28,2.58,1.69.98.41,2.04.62,3.17.62,1.34,0,2.59-.29,3.71-.86,1.13-.57,2.07-1.35,2.82-2.33l.22-.29-1.02-.58-.17.23c-.56.77-1.29,1.38-2.15,1.83-.86.45-1.8.67-2.79.67-.87,0-1.69-.17-2.42-.51-.74-.34-1.39-.81-1.95-1.4-.55-.6-.99-1.3-1.31-2.09-.31-.79-.47-1.65-.47-2.55s.16-1.76.47-2.55c.31-.79.75-1.48,1.31-2.07Z"/>
    <path class="cls-1" d="m104.93,25.59l5.71,12.27h2.76l-7.31-15.71h-.9l-7.31,15.71h1.34l5.71-12.27Z"/>
    <path class="cls-1" d="m130.1,29.13c.63-.78.95-1.71.95-2.76,0-.57-.09-1.12-.28-1.63-.19-.51-.49-.97-.89-1.36-.4-.39-.92-.69-1.53-.91-.61-.21-1.33-.32-2.17-.32h-7.12v15.71h2.6v-7.27h2.85l5.26,7.27h3.18l-5.35-7.4c1.11-.2,1.95-.65,2.5-1.33Zm-8.44-5.77h4.09c.59,0,1.06.08,1.41.23.33.15.6.36.78.62.19.27.32.58.38.93.07.38.1.79.1,1.23s-.03.85-.1,1.23c-.06.35-.19.65-.38.91-.18.25-.44.46-.78.61-.35.15-.82.23-1.41.23h-4.09v-6Z"/>
    <polygon class="cls-1" points="138.37 37.86 150.45 37.86 150.45 36.65 140.97 36.65 140.97 30.59 148.7 30.59 148.7 29.38 140.97 29.38 140.97 23.35 150.45 23.35 150.45 22.14 138.37 22.14 138.37 37.86"/>
    <polygon class="cls-1" points="169.47 22.2 169.47 22.44 163.45 30.14 158.03 22.14 155.33 22.14 155.33 37.86 156.58 37.86 156.58 25.06 162.21 33.19 163.28 33.19 169.47 25.26 169.47 37.86 172.04 37.86 172.04 22.14 169.79 22.14 169.47 22.2"/>
    <polygon class="cls-1" points="189.3 23.35 189.3 22.14 177.22 22.14 177.22 37.86 189.3 37.86 189.3 36.65 179.82 36.65 179.82 30.59 187.55 30.59 187.55 29.38 179.82 29.38 179.82 23.35 189.3 23.35"/>
  </g>
</svg>