<?xml version="1.0" encoding="UTF-8"?>
<svg id="_레이어_1" data-name="레이어 1" xmlns="http://www.w3.org/2000/svg" viewBox="0 0 216 216">
  <defs>
    <style>
      .cls-1 {
        fill: #231815;
      }

      .cls-1, .cls-2 {
        stroke-width: 0px;
      }

      .cls-2 {
        fill: none;
      }
    </style>
  </defs>
  <path class="cls-1" d="m157.46,167.3v-72.71l-48.32,28.82-45.4-27.41v-16.14l44.85,26.76,65.15-39.33c5.02,8.01,8.6,17.01,10.4,26.63h9.74c-6.75-41-42.42-72.37-85.3-72.37-47.68,0-86.47,38.79-86.47,86.47s38.79,86.47,86.47,86.47c42.88,0,78.55-31.38,85.3-72.37h-9.74c-3.36,18.07-13.04,33.94-26.68,45.21M108.58,31.12c24,0,45.46,11.06,59.57,28.34l-59.58,35.97-54.41-32.46v27.24l-17.11-10.33c11.25-28.52,39.06-48.76,71.53-48.76M31.7,108c0-6.46.81-12.74,2.32-18.74l20.13,12.15v60.83c-13.87-13.91-22.46-33.09-22.46-54.24m32.04,62.39v-63.19l45.37,27.39,38.76-23.12v62.58c-11.51,6.87-24.94,10.83-39.29,10.83-16.72,0-32.21-5.38-44.84-14.49"/>
  <rect class="cls-2" x="-179.1" y="-139.6" width="979" height="844.34"/>
</svg>